<?xml version="1.0" encoding="utf-8"?>
<!-- Generator: Adobe Illustrator 26.3.1, SVG Export Plug-In . SVG Version: 6.00 Build 0)  -->
<svg version="1.1" id="Layer_1" xmlns="http://www.w3.org/2000/svg" xmlns:xlink="http://www.w3.org/1999/xlink" x="0px" y="0px"
	 viewBox="0 0 500 203" style="enable-background:new 0 0 500 203;" xml:space="preserve">
<style type="text/css">
	.st0{stroke:#000000;stroke-width:2;stroke-miterlimit:10;}
</style>
<path class="st0" d="M451.3,20.2c-3.2,3.5-4.2,6.2-5.2,13c-1.2,8.5,0.1,17.4,4.4,30.8c2,6.1,3.4,11.8,3.1,12.6
	c-0.3,0.8-0.2,1.4,0.2,1.4c0.4,0,5.3-7.3,10.9-16.3c18.2-29,20.9-38.4,9.9-34.7c-4.5,1.4-8.1,4.3-11.7,9.3l-2.9,4v-6
	c0-3.3-0.7-8.3-1.5-11.1C456.7,17.3,454.7,16.5,451.3,20.2z M457,21.6c0.6,1.5,1.3,8.9,1.7,16.5c0.3,7.6,1,13.6,1.5,13.3
	c0.4-0.3,0.8-2.2,0.8-4.3c0-8.5,7.7-18.1,15.8-19.7c3-0.6,3.2-0.5,3.2,2c0,1.5-1.8,6.1-3.9,10.4c-5.2,10.3-19.3,32.5-20.6,32.4
	c-1.3-0.1-5.3-11.1-7-19.4c-0.8-3.8-1.5-10.4-1.5-14.6C447.1,25.1,454,13.6,457,21.6z"/>
<path class="st0" d="M382.1,35c-2.4,1.7-7.6,3.9-11.5,5c-9.9,2.9-14.1,4.8-16.8,7.8l-2.3,2.6l3.1-2.5c1.9-1.5,7.1-3.7,12.5-5.2
	c5.2-1.4,10.3-2.9,11.3-3.3c1.4-0.5,0.7,1.1-2.6,5.7c-2.5,3.5-8.3,12.5-12.8,19.9c-13.7,22.5-18.8,28.1-27.8,30.3
	c-3,0.8-4.7,1.7-4.7,2.7c0,2.3,5,2.4,9.8,0.1c4.1-2.1,4.7-2.1,19.2-0.8c15.1,1.3,26,0.8,29.3-1.3c1.5-1,1.5-1.1-0.2-0.6
	c-4.6,1.5-17.4,1.8-27.8,0.7c-6.2-0.7-11.9-1.4-12.6-1.7c-0.9-0.3,0.1-2.1,3.1-5.6c5.5-6.6,8.6-11.3,17.7-26.3
	c4-6.6,9.9-15.7,13.1-20.3C390,31.2,390,29.7,382.1,35z"/>
<path class="st0" d="M310.9,43.4c-2.5,0.6-6.6,2.4-9.2,3.9c-4.7,2.8-18.6,14.9-20.3,17.8C277,72.6,268,84.8,267.5,84
	c-1-1.7-7.6-1.1-10.9,1c-3.8,2.3-7.9,9.1-7.4,12.3c0.5,3.6,5.5,3.5,10.1-0.3c2-1.8,4.2-4.1,4.8-5.3c0.7-1.3-0.7-0.4-3.1,2
	c-4.2,4.2-7.6,6.1-8.8,4.8c-1.1-1.1,4.1-9.6,7.4-12.2c3.5-2.6,7-2.7,6.7-0.3c-0.4,3.5-1.5,7.4-2.4,9.2c-1.8,3.3-0.3,6.8,2.8,6.8
	c2.5,0,2.6-0.1,0.8-1.3c-1.4-1.1-1.6-2.1-1.1-4.3c0.9-3.4,9.1-17.5,15.2-26.2c4.2-5.8,4.7-6.2,8.7-6.3l4.2-0.2l-3.5-0.6l-3.5-0.6
	l5-4.9c11.5-11.3,24.2-16.3,30.3-12c7.6,5.3-4.1,14-21.9,16.3c-5,0.7-5.5,0.9-2.4,1c5.7,0.1,16.3-2.6,21.2-5.5
	c7.9-4.6,8.9-11.9,2-14.4C318,41.8,316.7,41.8,310.9,43.4z"/>
<path class="st0" d="M138.3,49.9c-8.9,4.9-14.7,9.7-26.1,21.6L101.1,83h-6.6c-4.2,0-8.6,0.8-12.3,2.1c-3.3,1.3-7.6,2.1-10.4,2
	c-5.7-0.2-9.3,1.5-14.1,6.8c-6.5,7.2-8.8,14.2-6.7,20.5c1.5,4.5,5.1,6.8,11,6.8c9.4,0,17.4-6.2,31.1-24.3l8.8-11.7l6.3,1.6
	c3.5,0.8,6.4,1.6,6.6,1.7c0.1,0.1-0.9,3.6-2.3,7.8c-1.4,4.2-2.5,9.3-2.5,11.4c0,7,4.9,11,11.9,9.6l3.6-0.8L121,116
	c-3.7-0.4-4.7-1-5.9-3.4c-1.1-2.4-1.1-3.7,0.2-9c0.9-3.3,2.3-7.8,3.1-9.9L120,90h6.8c8.3,0,14.4-2.6,17.2-7.2c1.1-1.8,2-4,2-4.8
	c-0.1-0.8-0.7-0.2-1.4,1.5c-0.7,1.6-2.4,4-3.7,5.2c-3,2.7-11.1,4.6-16.1,3.8l-3.8-0.7l4.2-7.9c2.3-4.4,8-12.8,12.5-18.7
	C148.2,47.7,148.4,44.3,138.3,49.9z M138.6,53.2c-5.7,6.7-13.4,17.6-18.3,26.1c-3.3,5.5-5,7.6-6.2,7.3c-8.5-2.4-10.1-3-10.1-3.6
	c0-1.5,13.4-16.3,19.2-21.1c5.7-4.8,17.4-12.9,18.6-12.9C142,49,140.6,50.9,138.6,53.2z M99.3,84.6c0.6,0.7-6.9,10.5-16.1,21.2
	c-13.3,15.3-24.7,18.4-28.2,7.7C51.5,103,60.9,88,70.9,88h3.4l-4.2,4.5c-3.4,3.7-4.2,5.2-3.9,7.7c0.2,2.2,1,3.3,2.7,4
	c2.4,0.8,2.4,0.8,0.7-1.1c-1.5-1.7-1.6-2.2-0.3-5.2c0.8-1.9,2.6-4.5,4-5.8c2.8-2.6,3.2-2.3,4,2.9c0.3,1.4,0.3,0.6,0.2-1.7
	c-0.3-4.8,0.4-5.7,6.1-7.7C87.5,84.1,98.1,83.5,99.3,84.6z"/>
<path class="st0" d="M350.6,52.5c-0.3,0.9-0.5,2.9-0.5,4.3c0.1,2,0.3,1.7,0.9-1.3C351.8,51.2,351.7,49.8,350.6,52.5z"/>
<path class="st0" d="M272.5,65.6c-2.2,0.8-4.4,2-5,2.6c-0.7,0.8-0.6,0.9,0.4,0.3c0.8-0.5,3.9-1.6,7-2.6c3.1-1,4.7-1.8,3.6-1.8
	S274.7,64.8,272.5,65.6z"/>
<path class="st0" d="M262.4,72.2l-2.9,3.3l3.3-2.9c3-2.8,3.7-3.6,2.9-3.6C265.5,69,264.1,70.5,262.4,72.2z"/>
<path class="st0" d="M410,70c0,0.5,0.9,1,2.1,1c1.1,0,1.7-0.5,1.4-1c-0.3-0.6-1.3-1-2.1-1C410.6,69,410,69.4,410,70z"/>
<path class="st0" d="M422.7,77.9c-2.1,3.2-3.7,7.1-3.7,8.5c0,2.2,0.5,2.6,2.8,2.6c3,0,6-1.7,11-6.4l3.3-3.1l-1.5,3
	c-0.9,1.6-1.6,4.2-1.6,5.7c0,2.4,0.4,2.8,2.7,2.8c2.5,0,2.5-0.1,0.9-1.3c-1.6-1.2-1.7-1.6-0.3-4.8c0.8-1.9,2.6-4.9,4-6.7
	c1.4-1.9,2.3-4,2-4.8c-0.8-2-1.4-1.6-6.3,4.1c-5.4,6.2-10.7,10.5-13.1,10.5c-2.4,0-2.4-0.7,0.6-5.5c4.4-7.2,4.9-8.5,3.8-9.6
	C426.7,72.3,425.1,73.9,422.7,77.9z"/>
<path class="st0" d="M406.6,75.1c-2.5,4-5.9,13.7-5.3,15.4c0.4,0.9,1.8,1.5,3.4,1.4c1.7-0.1,2.1-0.3,1.1-0.6
	c-2.6-0.7-2.2-3.8,1.4-10.4c2.4-4.3,2.9-6.2,2.1-7C408.5,73.1,407.8,73.4,406.6,75.1z"/>
<path class="st0" d="M290,82.1c-8.1,5-12,15.9-5.6,15.9c2.8,0,10-5.1,11.7-8.2c0.7-1.4-0.7-0.5-3.9,2.4c-5.2,4.9-6.6,5.6-7.7,3.8
	c-0.9-1.4,3.9-9.4,7.2-12c3-2.3,6.9-2.3,6.6,0c-0.3,2.4-1.2,6-2.4,9.7c-1.2,3.6,0,6.3,2.7,6.3c1.2,0,1.2-0.4,0.2-2
	c-1.1-1.8-0.8-2.9,2.1-8.6c2.7-5.2,3.1-6.8,2.1-7.7c-1-0.9-1.4-0.9-1.7,0c-0.4,1-1,0.9-2.6-0.2C295.8,79.5,294.1,79.6,290,82.1z"/>
<path class="st0" d="M235.3,83c-2.8,1.2-3,2-0.3,1.3c2.8-0.7,2.6,1.8-0.4,5.4c-5.4,6.5-6.3,11.8-2.1,12.9c1.4,0.4,2.9,0.4,3.2,0
	c0.4-0.3-0.1-0.6-1-0.6c-2.9,0-1.9-4.1,2.4-10.2C242.4,84.1,241.7,80.4,235.3,83z"/>
<path class="st0" d="M220.6,86.2c-0.3,1.3-2,4.8-3.8,7.8c-5.8,9.9-4.6,13.6,1.7,5c2-2.7,5.9-7,8.8-9.6s4.2-4.2,3-3.5
	c-1.2,0.6-2.5,1.6-2.8,2.1s-1.5,1.4-2.5,2c-1.7,0.9-1.8,0.7-1.3-2.5c0.4-2.7,0.2-3.5-1-3.5C221.9,84,220.9,85,220.6,86.2z"/>
<path class="st0" d="M160.4,88.6c-2.1,1.4-5.6,4.2-7.7,6.2l-3.9,3.7l1.8-3.8c1.4-2.8,1.5-4,0.6-4.9c-1.4-1.4-1.1-1.9-6.1,7.7
	c-4.1,8.1-4.9,10.9-3.2,11.9c1,0.6,6.7-8.3,6.3-9.7c-0.1-0.5,0.1-0.6,0.6-0.3c0.4,0.2,2.8-1.6,5.2-4.1c6.9-6.9,8.3-7.2,4.8-0.8
	c-3,5.5-3.3,8.5-1.1,9.2c0.6,0.2,3.9-2.1,7.2-5.1c3.4-3.1,6.3-5.6,6.6-5.6c0.2,0-0.9,2.1-2.5,4.7c-1.7,2.6-3,5.4-3,6.3
	c0,2.2,2,4,4.5,4c1.8-0.1,1.8-0.1,0.3-1.1c-2.6-1.4-2.2-3,1.7-8.8c6.8-9.9,3.7-10.8-6.1-1.9c-3.7,3.3-7,5.6-7.2,5
	c-0.2-0.7,1.3-3.9,3.3-7.3C167,86.6,166.2,84.7,160.4,88.6z"/>
<path class="st0" d="M191.2,89c-4,2.5-9.2,10.4-8.5,13c1.2,4.6,6.1,3.4,13.1-3.3l4.2-4.1l-1.6,4.1c-2.1,5.4-1.4,7.3,2.8,7.2
	c2.4-0.1,2.7-0.3,1.1-0.6c-3.2-0.6-2.9-3.5,0.7-10c3.2-5.6,3.2-7.8,0-6.8c-1,0.3-2.1,0.1-2.5-0.5C199.5,86.4,194.8,86.8,191.2,89z
	 M200.5,90c1.5,2.5-11.8,15.1-13.8,13.1c-1.5-1.5,0.2-5.1,4.5-9.7C195.1,89.1,199.1,87.7,200.5,90z"/>
<path class="st0" d="M392,94c-0.9,0.6-1,1-0.3,1c0.6,0,1.5-0.5,1.8-1C394.3,92.8,393.9,92.8,392,94z"/>
<path class="st0" d="M175,105.5c-1.4,0.8-2,1.4-1.4,1.5c0.5,0,1.9-0.7,3-1.5C179,103.7,178.2,103.6,175,105.5z"/>
<path class="st0" d="M136.4,109.2l-1.9,2.3l2.3-1.9c2.1-1.8,2.7-2.6,1.9-2.6C138.5,107,137.5,108,136.4,109.2z"/>
<path class="st0" d="M128,114.5c-1.4,0.8-2,1.4-1.4,1.5c0.5,0,1.9-0.7,3-1.5C132,112.7,131.2,112.6,128,114.5z"/>
<path class="st0" d="M133.9,156.5c0,7.2,0.1,7.6,3.2,7.6c3.8,0,8.3-4.1,8.3-7.6c0-3.6-4.5-7.6-8.3-7.6
	C134,148.9,133.9,149.3,133.9,156.5z M141.2,152.2c1.5,1,2.8,2.8,2.8,3.9c0,2.9-3.7,6.7-6.6,6.7c-1.9,0-2.3-1-2.3-6.4
	C135.1,149.6,136.4,148.7,141.2,152.2z"/>
<path class="st0" d="M153.3,156.5c0,4.6,0.3,6.4,0.5,4.1c0.3-2.2,0.3-6,0-8.3C153.6,150.1,153.3,151.9,153.3,156.5z"/>
<path class="st0" d="M165.7,151.4c-1.4,1.4-2.5,3.7-2.5,5.1c0,3.4,4.5,7.6,8,7.6c1.7,0,3.9-1,5.1-2.3c2.4-2.7,2.8-4.1,0.9-4.1
	c-0.6,0-1.3,0.9-1.3,1.9c0,1-1.4,2.2-3.2,2.7c-3.7,0.9-8.3-2.3-8.3-5.8c0-3.6,4.6-6.7,8.3-5.8c1.8,0.5,3.2,1.4,3.2,2
	c0,0.8,0.6,1.3,1.5,1.3c0.8,0,0.4-1.1-0.9-2.5c-1.3-1.4-3.7-2.5-5.3-2.5C169.6,148.9,167.1,150,165.7,151.4z"/>
<path class="st0" d="M187.7,156.5c0,4.6,0.3,6.4,0.5,4.1c0.3-2.2,0.3-6,0-8.3C187.9,150.1,187.7,151.9,187.7,156.5z"/>
<path class="st0" d="M197.8,150.4c1.3,1,2.2,4.1,2.5,8l0.4,6.4l0.3-7.2c0.3-5.6,0.8-7.4,2.5-7.8c1.1-0.4-0.1-0.6-2.8-0.8
	C196.4,148.9,196.1,149.1,197.8,150.4z"/>
<path class="st0" d="M214.1,156c-2.9,7.6-3.4,10.2-1.3,6.5c1.7-2.8,8.8-3.1,8.8-0.3c0,1,0.5,1.9,1.3,1.9c1,0-3.9-13.4-5.6-14.9
	C217,149,215.6,152.1,214.1,156z M219.4,156.5c0.5,1.9,0,2.5-1.8,2.5c-2.5,0-2.9-1-1.7-4.3C216.9,152.2,218.6,153.1,219.4,156.5z"/>
<path class="st0" d="M232,156.1c-0.3,8-0.3,8,3.3,7.9c2.8-0.1,2.9-0.3,0.6-0.8c-2.4-0.5-2.9-1.5-3.3-7.8l-0.4-7.2L232,156.1z"/>
<path class="st0" d="M283.9,156.5c0,7.5,0,7.6,3.6,7.6c4.5,0,7.9-3.4,7.9-8c0-3.7-4.1-7.2-8.5-7.2
	C284.2,148.9,283.9,149.4,283.9,156.5z M291.7,151.4c3.4,1.9,3.3,8.4-0.3,10.2c-4.2,2.3-6.2,0.6-6.2-4.8
	C285.2,150,286.7,148.7,291.7,151.4z"/>
<path class="st0" d="M304.3,156.5v7.6l4.8-0.3c4.6-0.1,4.6-0.1,0.6-0.6c-5.5-0.8-6-5.1-0.6-5.8l3.4-0.5l-3.4-0.3
	c-2.9-0.1-3.6-0.8-3.6-3.2c0-2.5,0.8-3.2,4.2-3.7c3.9-0.5,3.9-0.5-0.6-0.6l-4.8-0.3V156.5z"/>
<path class="st0" d="M323,149.8c-2.3,2.2-0.6,5.6,3.7,7.4c5.3,2.2,5.1,5.1-0.5,5.1c-2,0-3.6,0.4-3.2,0.9c0.9,1.5,6.1,1.1,7.8-0.5
	c2.7-2.7,1.7-4.7-3.1-6.7c-5.1-2.2-5.2-5.1-0.1-5.1c1.8,0.1,2.9-0.4,2.7-0.9C329.4,148.6,324.1,148.5,323,149.8z"/>
<path class="st0" d="M340.2,156.5c0,4.6,0.3,6.4,0.5,4.1c0.3-2.2,0.3-6,0-8.3C340.5,150.1,340.2,151.9,340.2,156.5z"/>
<path class="st0" d="M352.8,150.9c-5.5,3.8-2.2,13.2,4.6,13.2c2.9,0,8.6-4.7,7.4-6c-0.4-0.4-1.8,0.5-3.1,2.2
	c-4.5,5.5-12,0.6-9.8-6.4c1.1-3.6,6.5-4.7,9.5-1.9c1.4,1.3,2.5,1.7,2.5,0.9c0-1.7-4.1-4.1-6.6-4.1
	C356.4,148.9,354.4,149.8,352.8,150.9z"/>
<path class="st0" d="M373.2,156.8c0.1,6.4,0.3,6.9,0.6,2.5c0.3-2.9,0.9-5.3,1.4-5.3s2.4,2.4,4.3,5.5l3.6,5.3l-0.3-8.3
	c-0.1-7.6-0.1-7.8-0.9-2.7l-0.8,5.7l-3.7-5.3c-2-2.9-3.8-5.3-4.1-5.3C373.2,148.9,373.1,152.4,373.2,156.8z"/>
<path class="st0" d="M259.9,156.8c0,1.3-0.8,2.3-1.4,2.3c-0.8,0-0.6,0.8,0.3,1.8c0.9,1,1.9,1.3,2.3,0.8c0.4-0.5,1.5-1.3,2.5-1.7
	c1.5-0.5,1.5-0.8-0.3-0.8c-1.1-0.1-2.4-1.1-2.7-2.4C260.1,154.7,260,154.7,259.9,156.8z"/>
</svg>
